HIERARCHY
ROOT Hips
{
	OFFSET 0.000000 0.000000 0.000000
	CHANNELS 6 Xposition Yposition Zposition Zrotation Yrotation Xrotation 
	JOINT LeftUpLeg_virtual
	{
		OFFSET 0.000000 0.000000 0.000000
		CHANNELS 3 Zrotation Yrotation Xrotation
		JOINT LeftUpLeg
		{
			OFFSET 10.205400 -3.823500 0.155100
			CHANNELS 3 Zrotation Yrotation Xrotation
			JOINT LeftLeg
			{
				OFFSET 0.708757 -12.982077 0.567790
				CHANNELS 3 Zrotation Yrotation Xrotation
				JOINT LeftFoot
				{
					OFFSET -0.708756 -10.717838 -2.184338
					CHANNELS 3 Zrotation Yrotation Xrotation
					JOINT LeftToeBase
					{
						OFFSET 0.108149 -7.191104 7.560241
						CHANNELS 3 Zrotation Yrotation Xrotation
						End Site
						{
							OFFSET 0.000000 0.000000 0.000000
						}
					}
				}
			}
		}
	}
	JOINT RightUpLeg_virtual
	{
		OFFSET 0.000000 0.000000 0.000000
		CHANNELS 3 Zrotation Yrotation Xrotation
		JOINT RightUpLeg
		{
			OFFSET -10.205400 -3.823500 0.005500
			CHANNELS 3 Zrotation Yrotation Xrotation
			JOINT RightLeg
			{
				OFFSET -0.708756 -12.982134 0.610632
				CHANNELS 3 Zrotation Yrotation Xrotation
				JOINT RightFoot
				{
					OFFSET 0.708754 -10.717769 -1.945823
					CHANNELS 3 Zrotation Yrotation Xrotation
					JOINT RightToeBase
					{
						OFFSET -0.108140 -7.191069 7.372968
						CHANNELS 3 Zrotation Yrotation Xrotation
						End Site
						{
							OFFSET 0.000000 0.000000 0.000000
						}
					}
				}
			}
		}
	}
	JOINT Spine_virtual
	{
		OFFSET 0.000000 0.000000 0.000000
		CHANNELS 3 Zrotation Yrotation Xrotation
		JOINT Spine
		{
			OFFSET 0.000000 6.876099 0.125700
			CHANNELS 3 Zrotation Yrotation Xrotation
			JOINT Spine1
			{
				OFFSET 0.000000 8.022060 0.146608
				CHANNELS 3 Zrotation Yrotation Xrotation
				JOINT Spine2
				{
					OFFSET 0.000000 9.168068 0.167552
					CHANNELS 3 Zrotation Yrotation Xrotation
					JOINT Neck_virtual
					{
						OFFSET 0.000000 0.000000 0.000000
						CHANNELS 3 Zrotation Yrotation Xrotation
						JOINT Neck
						{
							OFFSET 0.000000 10.314075 0.188496
							CHANNELS 3 Zrotation Yrotation Xrotation
							JOINT Head
							{
								OFFSET 0.000000 7.643700 -2.377400
								CHANNELS 3 Zrotation Yrotation Xrotation
								End Site
								{
									OFFSET 0.000000 0.000000 0.000000
								}
							}
						}
					}
					JOINT LeftShoulder_virtual
					{
						OFFSET 0.000000 0.000000 0.000000
						CHANNELS 3 Zrotation Yrotation Xrotation
						JOINT LeftShoulder
						{
							OFFSET 4.392200 8.824978 0.174984
							CHANNELS 3 Zrotation Yrotation Xrotation
							JOINT LeftArm
							{
								OFFSET 8.771219 -2.981674 -0.026999
								CHANNELS 3 Zrotation Yrotation Xrotation
								JOINT LeftForeArm
								{
									OFFSET 8.512804 0.000000 -0.000000
									CHANNELS 3 Zrotation Yrotation Xrotation
									JOINT LeftHand
									{
										OFFSET 18.484802 0.000000 -0.000000
										CHANNELS 3 Zrotation Yrotation Xrotation
										End Site
										{
											OFFSET 0.000000 0.000000 0.000000
										}
									}
								}
							}
						}
					}
					JOINT RightShoulder_virtual
					{
						OFFSET 0.000000 0.000000 0.000000
						CHANNELS 3 Zrotation Yrotation Xrotation
						JOINT RightShoulder
						{
							OFFSET -4.392200 8.824993 0.141379
							CHANNELS 3 Zrotation Yrotation Xrotation
							JOINT RightArm
							{
								OFFSET -8.771282 -2.981682 -0.094208
								CHANNELS 3 Zrotation Yrotation Xrotation
								JOINT RightForeArm
								{
									OFFSET -8.494598 0.000000 0.000000
									CHANNELS 3 Zrotation Yrotation Xrotation
									JOINT RightHand
									{
										OFFSET -18.483803 0.000000 0.000001
										CHANNELS 3 Zrotation Yrotation Xrotation
										End Site
										{
											OFFSET 0.000000 0.000000 0.000000
										}
									}
								}
							}
						}
					}
				}
			}
		}
	}
}
MOTION
Frames: 11
Frame Time: 0.033333
14.188617 34.449993 -24.821726 179.962808 -3.794335 179.835179 -0.415807 -0.966986 8.789658 -6.601596 -9.116130 -28.688017 13.608072 8.372134 16.116449 -6.409268 5.358768 9.380343 0.000000 0.000000 0.000000 4.931439 -0.454406 7.911408 2.857376 13.740214 -23.426128 -8.235131 4.329219 16.500822 7.214111 3.541559 1.331572 0.000000 0.000000 0.000000 2.101065 1.660009 -2.703088 -1.040926 -2.259450 -8.387810 -0.635439 -2.650991 7.683265 0.046882 0.021056 -0.047209 -1.233520 -0.276999 10.143347 -3.067182 -2.239316 11.503587 0.000000 0.000000 0.000000 0.478479 0.466605 7.531404 -16.350846 -10.755370 0.148430 -54.120346 24.135010 0.331851 -0.193199 -28.773787 0.495805 0.000000 0.000000 0.000000 -3.482408 1.413530 6.941189 25.107965 3.068926 3.049437 45.481157 -17.331868 12.574180 -4.767289 26.996668 -3.158177 0.000000 0.000000 0.000000 
14.157774 34.450436 -24.786133 179.775825 -3.482902 179.705651 -0.620970 -1.305140 8.585642 -6.580102 -9.072648 -28.461169 13.729106 7.913216 16.081033 -6.318541 5.559406 10.221643 0.000000 0.000000 0.000000 4.982448 -1.113008 7.373620 2.279146 13.851025 -23.411539 -8.376025 4.783755 15.988426 7.469428 3.751933 1.185346 0.000000 0.000000 0.000000 2.020485 1.333722 -2.736318 -1.128688 -2.110687 -8.183435 -0.601712 -2.579377 7.575979 0.011409 0.061563 -0.047678 -1.129930 -0.328720 10.064230 -3.084679 -2.239278 11.455179 0.000000 0.000000 0.000000 0.585361 0.505121 7.482687 -16.381502 -10.645511 0.153586 -54.335804 23.965676 0.298832 -0.149626 -28.793209 0.425973 0.000000 0.000000 0.000000 -3.412842 1.484163 6.932952 25.103735 3.203569 3.039760 45.481369 -17.131252 12.608088 -4.736068 26.999420 -3.122742 0.000000 0.000000 0.000000 
14.139307 34.467125 -24.793077 179.861420 -3.638774 179.721101 -0.470093 -1.741492 8.324696 -6.725713 -8.831037 -28.165460 13.813194 8.190412 16.264265 -6.428107 5.511639 10.188837 0.000000 0.000000 0.000000 5.141044 -1.645643 7.062133 2.149831 13.854631 -23.001717 -8.267538 4.509505 15.681216 7.740005 4.014389 1.164129 0.000000 0.000000 0.000000 2.165755 1.072442 -2.870807 -1.080668 -1.978813 -8.212901 -0.572476 -2.554961 7.647934 0.011798 0.086364 -0.068406 -1.070175 -0.383684 10.078401 -3.029699 -2.270844 11.494005 0.000000 0.000000 0.000000 0.632826 0.489838 7.418532 -16.473737 -10.440447 0.182947 -54.612120 23.708526 0.443780 -0.159519 -28.793349 0.435166 0.000000 0.000000 0.000000 -3.366094 1.450745 6.820451 24.932595 3.299569 3.023439 45.498250 -16.902066 12.389366 -4.824998 26.785398 -3.145906 0.000000 0.000000 0.000000 
14.121282 34.484074 -24.811987 179.897976 -4.101331 179.663782 -0.392662 -2.120904 8.335370 -6.768013 -8.647923 -28.194649 13.861794 8.695204 16.354456 -6.812199 5.242948 10.522135 0.000000 0.000000 0.000000 5.195606 -2.019218 6.986725 2.073179 13.723729 -22.651013 -8.222286 4.313014 15.326366 7.773600 4.113992 1.070959 0.000000 0.000000 0.000000 2.274437 0.872960 -2.735613 -1.031088 -1.828625 -8.371595 -0.542330 -2.561148 7.556962 -0.000029 0.075638 -0.054764 -1.053127 -0.324350 10.103040 -2.868756 -2.277892 11.594382 0.000000 0.000000 0.000000 0.603027 0.544873 7.476329 -16.578841 -10.207425 0.195441 -54.976073 23.402646 0.953842 -0.073676 -28.922405 0.342159 0.000000 0.000000 0.000000 -3.364119 1.490973 6.884084 24.692056 3.429000 3.027079 45.515219 -16.908994 12.119264 -4.902401 26.492332 -3.160342 0.000000 0.000000 0.000000 
14.118041 34.502346 -24.851330 179.933766 -4.601684 179.694327 -0.373106 -2.277210 8.526474 -6.721652 -8.370305 -28.576641 13.912794 9.230422 16.477814 -7.310499 4.903495 10.710890 0.000000 0.000000 0.000000 5.226767 -2.123624 7.070089 2.076449 13.310888 -22.480140 -8.120648 4.238281 15.039262 7.615634 4.158488 0.995372 0.000000 0.000000 0.000000 2.391890 0.640833 -2.597369 -0.899211 -1.582141 -8.728455 -0.610054 -2.544476 7.628855 0.037445 0.065693 -0.061565 -1.084152 -0.345597 10.235876 -2.592751 -2.443334 11.876213 0.000000 0.000000 0.000000 0.559141 0.615477 7.540186 -16.671264 -9.958906 0.245432 -55.142129 23.049964 1.775008 -0.113317 -29.098648 0.419106 0.000000 0.000000 0.000000 -3.422114 1.614595 6.911985 24.392716 3.518942 3.048890 45.527384 -17.260428 11.899276 -5.010825 26.146931 -3.230840 0.000000 0.000000 0.000000 
14.149093 34.521881 -24.879181 179.914136 -5.133351 179.699477 -0.421939 -2.414747 8.806781 -6.624200 -7.990378 -29.035442 13.892889 9.667720 16.633237 -7.836599 4.559357 10.848876 0.000000 0.000000 0.000000 5.259842 -2.261806 7.199702 2.023993 12.956046 -22.409622 -7.966968 3.894602 14.932995 7.482718 4.228022 0.812798 0.000000 0.000000 0.000000 2.481881 0.640911 -2.406934 -0.928263 -1.285238 -9.083019 -0.601199 -2.577995 7.717867 -0.005840 -0.011670 -0.048525 -1.103916 -0.309525 10.341424 -2.317410 -2.300159 12.249308 0.000000 0.000000 0.000000 0.491401 0.679825 7.691076 -16.720563 -9.893269 0.160062 -54.990283 22.741940 3.036720 -0.154288 -29.280915 0.455039 0.000000 0.000000 0.000000 -3.486169 1.508539 7.013974 24.189566 3.706297 2.968358 45.563963 -17.838284 11.780399 -5.068271 25.877143 -3.271532 0.000000 0.000000 0.000000 
14.175862 34.536148 -24.878010 179.944612 -5.538702 179.638401 -0.396989 -2.614014 9.059957 -6.636070 -7.525049 -29.311634 14.020884 10.359374 16.614643 -8.497977 4.107369 11.138306 0.000000 0.000000 0.000000 5.304940 -2.469415 7.249092 1.968789 12.657021 -22.297021 -7.788775 3.728345 14.934986 7.341405 4.356658 0.581786 0.000000 0.000000 0.000000 2.608229 0.234668 -2.295741 -0.967623 -0.783335 -9.370929 -0.683189 -2.463665 7.755226 -0.006043 0.074011 -0.033226 -1.207260 -0.219128 10.502839 -1.994145 -2.302777 12.806285 0.000000 0.000000 0.000000 0.359667 0.660300 7.756072 -16.754872 -9.786081 0.330138 -54.533931 22.100392 4.073453 -0.235178 -29.332708 0.511286 0.000000 0.000000 0.000000 -3.588800 1.588114 7.216167 24.048022 3.867980 2.859821 45.588545 -18.515364 11.979497 -5.109804 25.674688 -3.327389 0.000000 0.000000 0.000000 
14.230676 34.550488 -24.853617 179.944817 -5.562278 179.653018 -0.519121 -2.496008 8.900010 -6.305733 -7.392016 -29.429854 14.197754 11.016842 17.063588 -8.990760 3.533735 10.978321 0.000000 0.000000 0.000000 5.383355 -2.556807 7.118074 1.905793 12.416971 -22.127211 -7.459543 3.263983 15.077926 7.353773 4.565737 0.310120 0.000000 0.000000 0.000000 2.790400 0.152002 -2.405784 -1.155552 -0.374872 -9.605345 -0.769572 -2.396040 7.929862 0.042194 0.119882 -0.011206 -1.299229 -0.335624 10.673557 -1.642555 -2.298551 13.488096 0.000000 0.000000 0.000000 0.263905 0.636961 7.810678 -16.752617 -9.890069 0.349778 -53.803012 21.362774 4.891930 -0.382692 -29.128517 0.552448 0.000000 0.000000 0.000000 -3.666574 1.554242 7.269177 23.965346 3.987337 2.687512 45.612140 -19.055022 12.375024 -5.155057 25.660703 -3.454597 0.000000 0.000000 0.000000 
14.292938 34.561607 -24.823494 179.879835 -5.482376 179.584033 -0.717797 -2.326938 8.517178 -6.028228 -7.029016 -29.210561 14.307152 11.402242 17.707282 -9.356422 2.989243 10.477754 0.000000 0.000000 0.000000 5.361927 -2.479684 6.890827 1.943843 12.153769 -21.754211 -7.177396 3.040529 15.224230 7.307263 4.660989 -0.087860 0.000000 0.000000 0.000000 2.723694 0.159259 -2.517773 -1.258761 -0.167753 -9.697293 -0.787186 -2.444704 8.060298 0.056092 0.068048 -0.092023 -1.381227 -0.163093 10.944040 -1.285660 -2.283875 14.274403 0.000000 0.000000 0.000000 0.157556 0.652200 7.972556 -16.623473 -10.067868 0.362747 -52.913899 20.615539 5.469970 -0.543352 -28.798782 0.497053 0.000000 0.000000 0.000000 -3.748177 1.557069 7.470964 24.079134 4.109181 2.425863 45.661727 -19.424575 12.854668 -5.103349 25.721985 -3.505341 0.000000 0.000000 0.000000 
14.359410 34.565605 -24.853882 179.958314 -5.055111 179.539473 -0.709512 -2.071038 8.075325 -5.911781 -6.625104 -28.758737 14.410610 11.476461 18.210060 -9.649430 2.650430 9.967888 0.000000 0.000000 0.000000 5.478254 -2.179137 6.552669 2.070574 11.910035 -21.275414 -6.871035 2.930312 15.375748 7.193483 4.619289 -0.579201 0.000000 0.000000 0.000000 2.795997 0.322935 -2.710085 -1.429002 -0.063899 -9.713216 -0.827918 -2.479217 8.261073 -0.008621 0.066825 -0.097897 -1.321769 -0.280320 11.044637 -0.839886 -2.201545 14.953253 0.000000 0.000000 0.000000 0.192304 0.547094 8.083358 -16.419713 -10.393461 0.327126 -52.069647 19.899367 5.924668 -0.691504 -28.479271 0.317078 0.000000 0.000000 0.000000 -3.706735 1.435033 7.603822 24.283937 4.127423 2.117224 45.683085 -19.631622 13.493218 -4.987017 25.729594 -3.539592 0.000000 0.000000 0.000000 
14.487541 34.540745 -25.021387 179.720705 -4.350972 179.479790 -0.861352 -1.821314 7.888367 -5.851065 -6.425356 -28.194743 14.672742 11.070675 18.870821 -9.735455 2.571995 9.179173 0.000000 0.000000 0.000000 5.214656 -1.903314 6.312750 2.503413 11.838413 -20.709321 -6.593181 2.825190 15.687140 7.154677 4.536359 -1.048073 0.000000 0.000000 0.000000 2.569093 0.479179 -2.919651 -1.729462 -0.079365 -9.618645 -0.847297 -2.504586 8.393637 -0.041297 0.087617 -0.095166 -1.226305 -0.486071 11.326032 -0.469305 -2.158964 15.975047 0.000000 0.000000 0.000000 0.267436 0.488426 8.167844 -16.189370 -10.595427 0.261617 -51.526831 19.630483 6.236052 -0.853677 -28.396421 0.068596 0.000000 0.000000 0.000000 -3.588546 1.363330 7.719999 24.533268 3.964112 1.665786 45.670077 -19.949849 13.933996 -4.783995 25.848226 -3.456048 0.000000 0.000000 0.000000 
